# xmcd CD database file
# Copyright (C) 1995 Ti Kan
#
# Track frame offsets:
#	150
#	46372
#	61297
#	84612
#	112297
#	129187
#	144022
#	158775
#	177425
#	188722
#	201200
#	229035
#
# Disc length: 3304 seconds
#
# Revision: 2
# Processed by: cddbd v1.4b41PL1 Copyright (c) Steve Scherf et al.
# Submitted via: NotifyCDPlayer(CDDB) 1.05
#
DISCID=a00ce60c
DTITLE=B.B. King - 36 All-Time Greatest Hits (Volume 2) 
DYEAR=1900
DGENRE=
TTITLE0=Lucille
TTITLE1=Dance With Me
TTITLE2=Don't Answer The Door (Parts 1 and 2)
TTITLE3=Don't You Lie To Me
TTITLE4=Everybody Lies A Little 
TTITLE5=Gambler's Blues
TTITLE6=Get Off My Back Woman
TTITLE7=Guess Who
TTITLE8=Heartbreaker
TTITLE9=I'm Gonna Do What They Do To Me
TTITLE10=Sweet Sixteen (Parts 1 and 2)
TTITLE11=Into The Night
EXTD=
EXTT0=
EXTT1=
EXTT2=
EXTT3=
EXTT4=
EXTT5=
EXTT6=
EXTT7=
EXTT8=
EXTT9=
EXTT10=
EXTT11=
PLAYORDER=
